<svg width="24" height="24" viewBox="0 0 24 24" xmlns="http://www.w3.org/2000/svg">
  <defs>
    <linearGradient id="dwGradient" x1="0%" y1="0%" x2="100%" y2="100%">
      <stop offset="0%" style="stop-color:#1f4788;stop-opacity:1" />
      <stop offset="50%" style="stop-color:#2968a3;stop-opacity:1" />
      <stop offset="100%" style="stop-color:#3498db;stop-opacity:1" />
    </linearGradient>
  </defs>

  <!-- Rounded rectangle background -->
  <rect x="2" y="2" width="20" height="20" rx="3" ry="3" fill="url(#dwGradient)" stroke="#1a365d" stroke-width="0.5"/>

  <!-- Dreamweaver "DW" text -->
  <g fill="white" font-family="Arial, sans-serif" font-weight="bold">
    <!-- D -->
    <path d="M5 7h3c2 0 3 1 3 3v4c0 2-1 3-3 3H5V7z M7 9v6h1c1 0 1.5-0.5 1.5-1.5v-3c0-1-0.5-1.5-1.5-1.5H7z"/>
    <!-- W -->
    <path d="M13 7l1 7 1-4 1 4 1-7h1.5l-1.5 10h-1.5l-1-4-1 4H11.5L10 7H13z"/>
  </g>
</svg>